# AST/ASF file generated using VICON BodyLanguage
# -----------------------------------------------
:version 1.10
:name VICON
:units
  mass 1.0
  length 0.45
  angle deg
:documentation
   .ast/.asf automatically generated from VICON data using
   VICON BodyBuilder and BodyLanguage model FoxedUp or BRILLIANT.MOD
:root
   order TX TY TZ RX RY RZ
   axis XYZ
   position 0 0 0  
   orientation 0 0 0 
:bonedata
  begin
     id 1 
     name lhipjoint
     direction 0.575328 -0.747301 0.332475 
     length 2.40933 
     axis 0 0 0  XYZ
  end
  begin
     id 2 
     name lfemur
     direction 0.34202 -0.939693 0  
     length 7.31453  
     axis 0 0 20  XYZ
    dof rx ry rz
    limits (-160.0 20.0)
           (-70.0 70.0)
           (-60.0 70.0)
  end
  begin
     id 3 
     name ltibia
     direction 0.34202 -0.939693 0   
     length 7.82185   
     axis 0 0 20   XYZ
    dof rx
    limits (-10.0 170.0)
  end
  begin
     id 4 
     name lfoot
     direction 0.0795993 -0.218697 0.972541   
     length 2.19173   
     axis -90 7.62852e-016 20   XYZ
    dof rx rz
    limits (-45.0 90.0)
           (-70.0 20.0)
  end
  begin
     id 5 
     name ltoes
     direction 1.53537e-011 -4.21894e-011 1   
     length 1.10023   
     axis -90 7.62852e-016 20   XYZ
    dof rx
    limits (-90.0 20.0)
  end
  begin
     id 6 
     name rhipjoint
     direction -0.513884 -0.783789 0.348708   
     length 2.29716  
     axis 0 0 0  XYZ 
  end
  begin
     id 7 
     name rfemur
     direction -0.34202 -0.939693 0   
     length 7.59573   
     axis 0 0 -20   XYZ
    dof rx ry rz
    limits (-160.0 20.0)
           (-70.0 70.0)
           (-70.0 60.0)
  end
  begin
     id 8 
     name rtibia
     direction -0.34202 -0.939693 0   
     length 7.66402   
     axis 0 0 -20   XYZ
    dof rx
    limits (-10.0 170.0)
 end
 begin
     id 9 
     name rfoot
     direction -0.137793 -0.378584 0.915253   
     length 2.27056  
     axis -90 -7.62852e-016 -20   XYZ
    dof rx rz
    limits (-45.0 90.0)
           (-20.0 70.0)
  end
  begin
     id 10 
     name rtoes
     direction -1.53493e-011 -4.22159e-011 1   
     length 1.11766   
     axis -90 -7.62852e-016 -20   XYZ
    dof rx
    limits (-90.0 20.0)
  end
  begin
     id 11 
     name lowerback
     direction -0.00732775 0.998356 -0.05685   
     length 2.16513   
     axis 0 0 0   XYZ
    dof rx ry rz
    limits (-20.0 45.0)
           (-30.0 30.0)
           (-30.0 30.0)
  end
  begin
     id 12 
     name upperback
     direction 0.0218081 0.999627 -0.0164647   
     length 2.16755   
     axis 0 0 0   XYZ
    dof rx ry rz
    limits (-20.0 45.0)
           (-30.0 30.0)
           (-30.0 30.0)
  end
  begin
     id 13 
     name thorax
     direction 0.02365 0.999661 0.0108914   
     length 2.16932   
     axis 0 0 0   XYZ
    dof rx ry rz
    limits (-20.0 45.0)
           (-30.0 30.0)
           (-30.0 30.0)
  end
  begin
     id 14 
     name lowerneck
     direction -0.0523929 0.978385 0.200044   
     length 1.63877   
     axis 0 0 0   XYZ
    dof rx ry rz
    limits (-20.0 45.0)
           (-30.0 30.0)
           (-30.0 30.0)
  end
  begin
     id 15 
     name upperneck
     direction 0.0448674 0.981321 -0.187074   
     length 1.69014   
     axis 0 0 0   XYZ
    dof rx ry rz
    limits (-20.0 45.0)
           (-30.0 30.0)
           (-30.0 30.0)
  end
  begin
     id 16
     name head
     direction 0.0199089 0.996118 -0.0857429  
     length 1.70094  
     axis 0 0 0   XYZ
    dof rx ry rz
    limits (-20.0 45.0)
           (-30.0 30.0)
           (-30.0 30.0)
  end
  begin
     id 17 
     name lclavicle
     direction 0.940366 0.30191 -0.156722  
     length 3.37521  
     axis 0 0 0   XYZ
    dof ry rz
    limits (-20.0 10.0)
           (0.0 20.0)
  end
  begin
     id 18 
     name lhumerus
     direction 1 -4.4897e-011 -1.7911e-027   
     length 5.25287   
     axis 180 -30 -90   XYZ
    dof rx ry rz
    limits (-60.0 90.0)
           (-90.0 90.0)
           (-90.0 90.0)
  end
  begin
     id 19
     name lradius
     direction 1 -4.48951e-011 1.04424e-027   
     length 3.51014   
     axis 180 -30 -90   XYZ
    dof rx
    limits (-10.0 170.0)
  end
  begin
     id 20
     name lwrist
     direction 1 -4.48997e-011 -9.5942e-028   
     length 1.75507   
     axis 8.48502e-016 90 90   XYZ
    dof ry
    limits (-180.0 0.0)
 end
  begin
     id 21 
     name lhand
     direction 1 -4.48831e-011 -1.90777e-027   
     length 0.706179   
     axis 1.22306e-015 90 90   XYZ
    dof rx rz
    limits (-90.0 90.0)
           (-45.0 45.0)
  end
  begin
     id 22 
     name lfingers
     direction 1 -4.49108e-011 -3.85244e-027   
     length 0.569339   
     axis 2.44611e-015 90 90   XYZ
    dof rx
    limits (0.0 90.0)
  end
  begin
     id 23
     name lthumb
     direction 0.707107 -6.34953e-011 0.707107   
     length 0.817461   
     axis -90 45 -1.62303e-014   XYZ
    dof rx rz
    limits (-45.0 45.0)
           (-45.0 45.0)
  end
  begin
     id 24 
     name rclavicle
     direction -0.905329 0.382405 -0.184787   
     length 3.30787  
     axis 0 0 0   XYZ 
    dof ry rz
    limits (-10.0 20.0)
           (-20.0 0.0)
  end
  begin
     id 25 
     name rhumerus
     direction -1 -4.48953e-011 -9.15316e-029  
     length 5.28721   
     axis 180 30 90   XYZ
    dof rx ry rz
    limits (-90.0 60.0)
           (-90.0 90.0)
           (-90.0 90.0)
  end
  begin
     id 26 
     name rradius
     direction -1 -4.48987e-011 9.37824e-028   
     length 3.50544   
     axis 180 30 90   XYZ
    dof rx
    limits (-10.0 170.0)
  end
  begin
     id 27 
     name rwrist
     direction -1 -4.48967e-011 -9.58414e-028   
     length 1.75272   
     axis 8.48502e-016 -90 -90   XYZ
    dof ry
    limits (-180.0 0.0)
  end
  begin
     id 28
     name rhand
     direction -1 -4.48904e-011 -1.91266e-027   
     length 0.884996   
     axis 1.22306e-015 -90 -90   XYZ
    dof rx rz
    limits (-90.0 90.0)
           (-45.0 45.0)
  end
  begin
     id 29
     name rfingers
     direction -1 -4.4909e-011 -3.85015e-027   
     length 0.713507   
     axis 2.44611e-015 -90 -90   XYZ
    dof rx
    limits (0.0 90.0)
  end
  begin
     id 30
     name rthumb
     direction -0.707107 -6.34853e-011 0.707107   
     length 1.02446   
     axis -90 -45 1.62303e-014   XYZ
    dof rx rz
    limits (-45.0 45.0)
           (-45.0 45.0)
  end
:hierarchy
  begin
    root lhipjoint rhipjoint lowerback
    lhipjoint lfemur
    lfemur ltibia
    ltibia lfoot
    lfoot ltoes
    rhipjoint rfemur
    rfemur rtibia
    rtibia rfoot
    rfoot rtoes
    lowerback upperback
    upperback thorax
    thorax lowerneck lclavicle rclavicle
    lowerneck upperneck
    upperneck head
    lclavicle lhumerus
    lhumerus lradius
    lradius lwrist
    lwrist lhand lthumb
    lhand lfingers
    rclavicle rhumerus
    rhumerus rradius
    rradius rwrist
    rwrist rhand rthumb
    rhand rfingers
  end

#!OML:ASF F:\twosubjects\two\Thursday\Session 1\justin.ASF
:FULLY-SPECIFIED
:DEGREES
17
root 7.11612 9.38159 -18.1645 -30.1357 2.21382 -1.41799
lowerback 31.9286 2.65103 -2.09097
upperback 12.4937 2.86049 0.862058
thorax -3.36343 1.34274 1.2051
lowerneck -23.2408 -6.62173 -12.3577
upperneck 14.74 -7.47824 11.9715
head 9.4002 -2.92605 5.07745
rclavicle -2.06736e-014 1.94809e-014
rhumerus -16.9773 -3.68669 -85.6515
rradius 107.193
rwrist -29.3116
rhand -2.46204 20.871
rfingers 7.12502
rthumb 23.2302 -7.74789
lclavicle -2.06736e-014 1.94809e-014
lhumerus -9.56427 -2.7959 87.1019
lradius 98.8783
lwrist 33.0436
lhand 22.0787 29.0008
lfingers 7.12502
lthumb 46.4664 51.8986
rfemur -60.4091 -19.5471 2.25911
rtibia 100.193
rfoot -5.19711 -3.66892
rtoes -7.58556
lfemur -60.57 17.1747 1.93608
ltibia 95.2224
lfoot -6.12525 -18.485
ltoes -14.4263
18
root 7.11894 9.38669 -18.1791 -30.2642 1.88485 -2.17904
lowerback 32.1067 2.48545 -1.39189
upperback 12.3327 2.85542 0.961103
thorax -3.60374 1.35891 0.906154
lowerneck -23.2174 -6.73488 -12.988
upperneck 15.0735 -7.61548 12.6813
head 9.59321 -2.95124 5.42643
rclavicle 1.10325e-014 5.56597e-015
rhumerus -17.4265 -3.84541 -85.892
rradius 108.599
rwrist -29.2488
rhand -1.5946 20.8425
rfingers 7.12502
rthumb 24.0622 -7.66892
lclavicle 1.10325e-014 5.56597e-015
lhumerus -9.9422 -2.40535 86.9032
lradius 100.401
lwrist 32.4079
lhand 20.3604 29.0007
lfingers 7.12502
lthumb 44.8706 52.551
rfemur -60.1922 -19.3502 3.17785
rtibia 100.033
rfoot -5.65309 -4.19262
rtoes -4.42628
lfemur -60.6248 17.3565 2.77412
ltibia 95.1996
lfoot -6.28172 -18.6752
ltoes -15.9843
19
root 7.1246 9.39504 -18.1908 -30.5631 1.61123 -1.91
lowerback 32.5152 2.79091 -1.64559
upperback 12.0697 3.14561 0.82016
thorax -4.09373 1.49923 0.775408
lowerneck -22.7713 -6.73212 -13.1602
upperneck 15.392 -7.71706 13.0129
head 9.66612 -2.98801 5.57087
rclavicle -8.05078e-015 1.78906e-014
rhumerus -18.3578 -4.19298 -86.0365
rradius 110.116
rwrist -29.4784
rhand -0.492821 20.508
rfingers 7.12502
rthumb 25.1183 -7.8597
lclavicle -8.05078e-015 1.78906e-014
lhumerus -10.7272 -2.54422 86.7097
lradius 102.043
lwrist 31.7932
lhand 19.5418 29.859
lfingers 7.12502
lthumb 44.108 53.7015
rfemur -59.922 -18.839 3.01153
rtibia 99.8919
rfoot -6.10366 -4.47785
rtoes -1.37357
lfemur -60.0728 17.6563 2.75713
ltibia 95.1303
lfoot -6.22293 -18.7312
ltoes -16.2903
20
root 7.13304 9.40395 -18.1894 -30.8196 1.68652 -0.749438
lowerback 32.5808 3.27204 -2.75722
upperback 11.9459 3.38671 0.422867
thorax -4.29619 1.60109 0.880188
lowerneck -22.3621 -6.67118 -12.8354
upperneck 15.565 -7.74351 12.7257
head 9.63016 -3.02455 5.41295
rclavicle 3.74709e-014 -2.54444e-014
rhumerus -19.0203 -4.35253 -86.2076
rradius 111.563
rwrist -29.8338
rhand 0.601916 19.9945
rfingers 7.12502
rthumb 26.1668 -8.22216
lclavicle 3.74709e-014 -2.54444e-014
lhumerus -11.5515 -2.72445 86.5081
lradius 103.605
lwrist 31.1424
lhand 20.0054 30.7834
lfingers 7.12502
lthumb 44.5402 54.4618
rfemur -59.7491 -18.472 1.73734
rtibia 99.8199
rfoot -6.18238 -4.20644
rtoes -0.221302
lfemur -59.2779 17.8498 1.71333
ltibia 95.0229
lfoot -6.44583 -18.4621
ltoes -16.6227
21
root 7.13683 9.40943 -18.1889 -30.9927 1.76631 -0.128352
lowerback 32.4263 3.46388 -3.55819
upperback 11.9866 3.38485 0.29594
thorax -4.20814 1.58192 1.20557
lowerneck -22.0936 -6.61279 -12.7266
upperneck 15.4393 -7.63197 12.3386
head 9.4987 -3.01713 5.27013
rclavicle -6.85807e-015 2.38542e-015
rhumerus -19.159 -3.79457 -86.1855
rradius 112.765
rwrist -30.1398
rhand 1.58047 19.7113
rfingers 7.12502
rthumb 27.1033 -8.36302
lclavicle -6.85807e-015 2.38542e-015
lhumerus -12.2087 -2.43734 86.4222
lradius 105.022
lwrist 30.4292
lhand 20.3083 30.7362
lfingers 7.12502
lthumb 44.8222 54.3054
rfemur -59.5774 -18.295 1.00328
rtibia 99.744
rfoot -6.07783 -4.00122
rtoes -0.0199789
lfemur -58.8014 17.8542 1.15242
ltibia 94.9207
lfoot -6.47797 -18.323
ltoes -16.445
22
root 7.13358 9.40493 -18.1999 -31.0826 1.04983 0.405701
lowerback 32.3761 3.87229 -4.33323
upperback 11.913 3.66416 0.35006
thorax -4.32191 1.69589 1.61081
lowerneck -21.9156 -6.49841 -12.8932
upperneck 15.4449 -7.37932 12.0591
head 9.42658 -2.94573 5.23847
rclavicle 1.88845e-015 9.14409e-015
rhumerus -19.3475 -2.90971 -86.0001
rradius 113.82
rwrist -30.2949
rhand 2.83539 19.6656
rfingers 7.12502
rthumb 28.3033 -8.2158
lclavicle 1.88845e-015 9.14409e-015
lhumerus -12.9741 -2.05329 86.3416
lradius 106.475
lwrist 29.8326
lhand 20.2017 30.1402
lfingers 7.12502
lthumb 44.723 53.7481
rfemur -59.8982 -17.3515 0.998712
rtibia 99.6596
rfoot -5.91927 -4.06003
rtoes -0.0895907
lfemur -58.3257 18.6578 1.23252
ltibia 94.9317
lfoot -6.1063 -18.3683
ltoes -13.6621
23
root 7.14089 9.40142 -18.2074 -31.169 1.15332 0.0536218
lowerback 32.3592 3.66142 -4.11141
upperback 11.9401 3.46959 0.396615
thorax -4.26597 1.60378 1.60631
lowerneck -22.3691 -6.48765 -12.961
upperneck 15.7748 -7.2708 11.8699
head 9.5992 -2.90448 5.20255
rclavicle -3.67752e-014 1.98785e-014
rhumerus -19.3561 -2.27247 -85.9359
rradius 114.916
rwrist -30.4445
rhand 4.42384 19.3252
rfingers 7.12502
rthumb 29.8203 -8.29445
lclavicle -3.67752e-014 1.98785e-014
lhumerus -13.3567 -2.0321 86.1156
lradius 107.724
lwrist 29.5307
lhand 20.0279 29.5189
lfingers 7.12502
lthumb 44.561 53.1893
rfemur -59.6898 -17.5957 1.20185
rtibia 99.6013
rfoot -5.97936 -4.03788
rtoes -0.0877134
lfemur -58.4588 18.512 1.42507
ltibia 94.9502
lfoot -6.12532 -18.4413
ltoes -13.4743
24
root 7.15032 9.39854 -18.2114 -31.2249 1.62434 -0.745064
lowerback 32.0954 3.15136 -3.38508
upperback 12.2096 3.06594 0.422953
thorax -3.79389 1.41854 1.37724
lowerneck -23.2773 -6.59055 -12.8775
upperneck 16.0868 -7.3433 11.8301
head 9.87286 -2.90723 5.16332
rclavicle 4.07509e-015 -7.55382e-015
rhumerus -19.0263 -1.6933 -86.1017
rradius 116.042
rwrist -30.9147
rhand 5.79004 18.9921
rfingers 7.12502
rthumb 31.1232 -8.38578
lclavicle 4.07509e-015 -7.55382e-015
lhumerus -13.1623 -2.15629 85.7913
lradius 108.689
lwrist 29.3831
lhand 20.0882 29.2478
lfingers 7.12502
lthumb 44.6172 52.8966
rfemur -59.2725 -18.3623 1.56277
rtibia 99.5651
rfoot -6.04253 -4.05938
rtoes 0.400277
lfemur -58.8605 17.8882 1.74781
ltibia 94.9385
lfoot -6.54238 -18.6254
ltoes -16.9691
25
root 7.15731 9.39955 -18.2176 -31.3497 1.92496 -0.934034
lowerback 31.7097 3.2525 -3.23415
upperback 11.9796 3.25215 0.319801
thorax -3.88483 1.52415 1.11872
lowerneck -21.2202 -6.44157 -12.1018
upperneck 15.4461 -7.53698 11.6067
head 9.27324 -3.04098 4.92333
rclavicle -3.88624e-014 1.31198e-014
rhumerus -20.2621 -1.8925 -86.3697
rradius 117.338
rwrist -31.2356
rhand 7.34203 19.0125
rfingers 7.12502
rthumb 32.6012 -8.07099
lclavicle -3.88624e-014 1.31198e-014
lhumerus -14.0509 -3.3479 85.4464
lradius 109.715
lwrist 29.2852
lhand 20.7693 29.5089
lfingers 7.12502
lthumb 45.2511 52.9089
rfemur -58.9453 -18.7634 1.46267
rtibia 99.5036
rfoot -6.04485 -3.98045
rtoes 1.06871
lfemur -58.8826 17.4755 1.74402
ltibia 94.9134
lfoot -6.43424 -18.6952
ltoes -17.4684
26
root 7.16291 9.40073 -18.2262 -31.4162 1.84041 -1.07814
lowerback 31.4821 3.17466 -3.13764
upperback 12.0778 3.19257 0.326284
thorax -3.66648 1.49454 1.10197
lowerneck -21.4566 -6.47778 -12.2645
upperneck 15.6149 -7.5094 11.546
head 9.37289 -3.03633 4.93383
rclavicle -1.46107e-014 9.54166e-015
rhumerus -20.4496 -1.00589 -86.4226
rradius 118.358
rwrist -31.3517
rhand 9.3992 19.269
rfingers 7.12502
rthumb 34.5563 -7.38954
lclavicle -1.46107e-014 9.54166e-015
lhumerus -14.2684 -3.51428 85.1469
lradius 110.73
lwrist 29.1682
lhand 21.5117 29.7469
lfingers 7.12502
lthumb 45.9406 52.8661
rfemur -58.8406 -18.7594 1.63092
rtibia 99.4252
rfoot -6.00747 -3.98539
rtoes 1.31582
lfemur -58.8485 17.4522 1.95372
ltibia 94.8998
lfoot -6.07887 -18.7862
ltoes -15.5608
27
root 7.16601 9.40129 -18.2381 -31.4505 1.45177 -1.62683
lowerback 31.2875 3.03328 -2.65756
upperback 12.0647 3.16687 0.48952
thorax -3.58505 1.48938 1.02323
lowerneck -21.5153 -6.54954 -12.5901
upperneck 15.8836 -7.53723 11.6134
head 9.49647 -3.05997 5.01255
rclavicle -8.15017e-015 -1.27222e-014
rhumerus -20.8379 0.09835 -86.2564
rradius 119.332
rwrist -31.8634
rhand 11.2853 19.5754
rfingers 7.12502
rthumb 36.3444 -6.65572
lclavicle -8.15017e-015 -1.27222e-014
lhumerus -14.8831 -3.71519 84.9416
lradius 111.82
lwrist 29.0586
lhand 21.808 29.7764
lfingers 7.12502
lthumb 46.2155 52.7807
rfemur -58.8336 -18.5483 2.44692
rtibia 99.3255
rfoot -5.95693 -4.19092
rtoes 1.48477
lfemur -58.8803 17.6678 2.69181
ltibia 94.8811
lfoot -6.11124 -18.9844
ltoes -15.4974
